<?xml version="1.0" encoding="UTF-8" standalone="no"?>
<!-- Created with Inkscape (http://www.inkscape.org/) -->

<svg
   width="58.208332mm"
   height="58.208332mm"
   viewBox="0 0 58.208332 58.208332"
   version="1.1"
   id="svg1"
   xml:space="preserve"
   xmlns="http://www.w3.org/2000/svg"
   xmlns:svg="http://www.w3.org/2000/svg"><defs
     id="defs1" /><g
     id="g3"
     transform="translate(-75.215628,-113.55704)"
     style="display:inline"><circle
       style="display:inline;fill:#ffffff;fill-opacity:1;stroke:none;stroke-width:2.64583;stroke-dasharray:none;paint-order:fill markers stroke"
       id="circle3"
       cx="104.31979"
       cy="142.66121"
       r="29.104166" /><ellipse
       style="display:inline;fill:#5fed83;fill-opacity:1;stroke:none;stroke-width:2.285;stroke-dasharray:none;paint-order:fill markers stroke"
       id="ellipse3"
       cx="104.31979"
       cy="142.66121"
       rx="25.135"
       ry="25.135416" /><path
       d="m 94.203206,124.90119 c -1.917195,0 -3.472656,1.55546 -3.472656,3.47266 v 30.09635 c 0,1.91719 1.555461,3.47266 3.472656,3.47266 h 6.945314 v -5.78776 c 0,-1.9172 1.55546,-3.47266 3.47265,-3.47266 1.9172,0 3.47266,1.55546 3.47266,3.47266 v 5.78776 h 6.94531 c 1.9172,0 3.47266,-1.55547 3.47266,-3.47266 v -30.09635 c 0,-1.9172 -1.55546,-3.47266 -3.47266,-3.47266 z m 1.157552,17.36328 c 0,-0.63665 0.520899,-1.15755 1.157552,-1.15755 h 2.315105 c 0.636653,0 1.157551,0.5209 1.157551,1.15755 v 2.31511 c 0,0.63665 -0.520898,1.15755 -1.157551,1.15755 H 96.51831 c -0.636653,0 -1.157552,-0.5209 -1.157552,-1.15755 z m 8.102862,-1.15755 h 2.3151 c 0.63666,0 1.15755,0.5209 1.15755,1.15755 v 2.31511 c 0,0.63665 -0.52089,1.15755 -1.15755,1.15755 h -2.3151 c -0.63665,0 -1.15755,-0.5209 -1.15755,-1.15755 v -2.31511 c 0,-0.63665 0.5209,-1.15755 1.15755,-1.15755 z m 5.78776,1.15755 c 0,-0.63665 0.5209,-1.15755 1.15755,-1.15755 h 2.31511 c 0.63665,0 1.15755,0.5209 1.15755,1.15755 v 2.31511 c 0,0.63665 -0.5209,1.15755 -1.15755,1.15755 h -2.31511 c -0.63665,0 -1.15755,-0.5209 -1.15755,-1.15755 z M 96.51831,131.8465 h 2.315105 c 0.636653,0 1.157551,0.5209 1.157551,1.15755 v 2.31511 c 0,0.63665 -0.520898,1.15755 -1.157551,1.15755 H 96.51831 c -0.636653,0 -1.157552,-0.5209 -1.157552,-1.15755 v -2.31511 c 0,-0.63665 0.520899,-1.15755 1.157552,-1.15755 z m 5.78776,1.15755 c 0,-0.63665 0.5209,-1.15755 1.15755,-1.15755 h 2.3151 c 0.63666,0 1.15755,0.5209 1.15755,1.15755 v 2.31511 c 0,0.63665 -0.52089,1.15755 -1.15755,1.15755 h -2.3151 c -0.63665,0 -1.15755,-0.5209 -1.15755,-1.15755 z m 8.10286,-1.15755 h 2.31511 c 0.63665,0 1.15755,0.5209 1.15755,1.15755 v 2.31511 c 0,0.63665 -0.5209,1.15755 -1.15755,1.15755 h -2.31511 c -0.63665,0 -1.15755,-0.5209 -1.15755,-1.15755 v -2.31511 c 0,-0.63665 0.5209,-1.15755 1.15755,-1.15755 z"
       id="path1-76-8"
       style="display:inline;stroke-width:0.0723469" /></g></svg>
