<?xml version="1.0" encoding="UTF-8" standalone="no"?>
<!-- Created with Inkscape (http://www.inkscape.org/) -->

<svg
   width="58.208332mm"
   height="58.208332mm"
   viewBox="0 0 58.208332 58.208332"
   version="1.1"
   id="svg1"
   xml:space="preserve"
   xmlns="http://www.w3.org/2000/svg"
   xmlns:svg="http://www.w3.org/2000/svg"><defs
     id="defs1" /><g
     id="g9"
     transform="translate(-75.215628,-113.55704)"
     style="display:inline"><circle
       style="display:inline;fill:#ffffff;fill-opacity:1;stroke:none;stroke-width:2.64583;stroke-dasharray:none;paint-order:fill markers stroke"
       id="circle8"
       cx="104.31979"
       cy="142.66121"
       r="29.104166" /><circle
       style="display:inline;fill:#ff80d2;fill-opacity:1;stroke:none;stroke-width:2.28503;stroke-dasharray:none;paint-order:fill markers stroke"
       id="circle9"
       cx="104.31979"
       cy="142.66121"
       r="25.135416" /><path
       d="m 94.658847,131.97814 a 1.682437,1.7139745 0 1 0 0,-3.42794 1.682437,1.7139745 0 1 0 0,3.42794 z m 5.608123,-1.71397 c 0,2.34243 -1.381001,4.35635 -3.364874,5.23476 v 6.27029 c 1.317909,-0.77843 2.853132,-1.22121 4.486494,-1.22121 h 6.72975 c 2.47458,0 4.4865,-2.04962 4.4865,-4.57059 v -0.47849 c -1.98387,-0.87841 -3.36487,-2.89233 -3.36487,-5.23476 0,-3.15657 2.50963,-5.71325 5.60812,-5.71325 3.09848,0 5.60812,2.55668 5.60812,5.71325 0,2.34243 -1.381,4.35635 -3.36487,5.23476 v 0.47849 c 0,5.04908 -4.01682,9.14119 -8.973,9.14119 h -6.72975 c -2.47458,0 -4.486494,2.04963 -4.486494,4.5706 v 0.47848 c 1.983873,0.87842 3.364874,2.89234 3.364874,5.23476 0,3.15657 -2.509636,5.71325 -5.608123,5.71325 -3.098487,0 -5.608122,-2.55668 -5.608122,-5.71325 0,-2.34242 1.381,-4.35634 3.364873,-5.23476 v -0.47848 -14.19028 c -1.983873,-0.87841 -3.364873,-2.89233 -3.364873,-5.23476 0,-3.15657 2.509635,-5.71325 5.608122,-5.71325 3.098487,0 5.608123,2.55668 5.608123,5.71325 z m 16.26355,0 a 1.682437,1.7139745 0 1 0 -3.36487,0 1.682437,1.7139745 0 1 0 3.36487,0 z m -21.871673,26.85226 a 1.682438,1.7139755 0 1 0 0,-3.42795 1.682438,1.7139755 0 1 0 0,3.42795 z"
       id="path1-093"
       style="stroke-width:0.0707554" /></g></svg>
