<?xml version="1.0" encoding="UTF-8" standalone="no"?>
<!-- Created with Inkscape (http://www.inkscape.org/) -->

<svg
   width="58.208332mm"
   height="58.208332mm"
   viewBox="0 0 58.208332 58.208332"
   version="1.1"
   id="svg1"
   xml:space="preserve"
   xmlns="http://www.w3.org/2000/svg"
   xmlns:svg="http://www.w3.org/2000/svg"><defs
     id="defs1" /><g
     id="g7"
     transform="translate(-75.215628,-113.55704)"
     style="display:inline"><circle
       style="display:inline;fill:#ffffff;fill-opacity:1;stroke:none;stroke-width:2.64583;stroke-dasharray:none;paint-order:fill markers stroke"
       id="circle6"
       cx="104.31979"
       cy="142.66121"
       r="29.104166" /><circle
       style="display:inline;fill:#9eecff;fill-opacity:1;stroke:none;stroke-width:2.28503;stroke-dasharray:none;paint-order:fill markers stroke"
       id="circle7"
       cx="104.31979"
       cy="142.66121"
       r="25.135416" /><path
       d="m 90.198289,128.58208 h 28.388371 c 1.12161,0 2.02775,0.95547 2.02775,2.13812 v 2.13812 c 0,1.18265 -0.90614,2.13812 -2.02775,2.13812 H 90.198289 c -1.121595,0 -2.027751,-0.95547 -2.027751,-2.13812 v -2.13812 c 0,-1.18265 0.906156,-2.13812 2.027751,-2.13812 z m 0,8.5525 h 28.388371 v 17.10497 c 0,2.35863 -1.81861,4.27626 -4.05548,4.27626 H 94.253769 c -2.236854,0 -4.05548,-1.91763 -4.05548,-4.27626 z m 8.110956,5.3453 c 0,0.58798 0.45624,1.06906 1.01387,1.06906 h 10.138715 c 0.55763,0 1.01387,-0.48108 1.01387,-1.06906 0,-0.58799 -0.45624,-1.06906 -1.01387,-1.06906 H 99.323115 c -0.55763,0 -1.01387,0.48107 -1.01387,1.06906 z"
       id="path1-58"
       style="stroke-width:0.0650687" /></g></svg>
