<?xml version="1.0" encoding="UTF-8" standalone="no"?>
<!-- Created with Inkscape (http://www.inkscape.org/) -->

<svg
   width="58.208332mm"
   height="58.208332mm"
   viewBox="0 0 58.208332 58.208332"
   version="1.1"
   id="svg1"
   xml:space="preserve"
   xmlns="http://www.w3.org/2000/svg"
   xmlns:svg="http://www.w3.org/2000/svg"><defs
     id="defs1" /><g
     id="g5"
     transform="translate(-75.215628,-113.55704)"
     style="display:inline"><circle
       style="display:inline;fill:#ffffff;fill-opacity:1;stroke:none;stroke-width:2.64583;stroke-dasharray:none;paint-order:fill markers stroke"
       id="circle4"
       cx="104.31979"
       cy="142.66121"
       r="29.104166" /><circle
       style="display:inline;fill:#c06eff;fill-opacity:1;stroke:none;stroke-width:2.28503;stroke-dasharray:none;paint-order:fill markers stroke"
       id="circle5"
       cx="104.31979"
       cy="142.66121"
       r="25.135416" /><path
       d="m 94.272661,128.60535 a 4.63021,4.63021 0 1 1 0,9.26042 4.63021,4.63021 0 1 1 0,-9.26042 z m 21.298959,0 a 4.63021,4.63021 0 1 1 0,9.26042 4.63021,4.63021 0 1 1 0,-9.26042 z m -29.633335,17.28804 c 0,-3.40899 2.766549,-6.17554 6.175541,-6.17554 H 94.5852 c 0.920253,0 1.794205,0.20257 2.581339,0.56141 -0.07524,0.41672 -0.109965,0.8508 -0.109965,1.29068 0,2.21092 0.972344,4.19612 2.506098,5.55625 -0.01157,0 -0.02315,0 -0.04051,0 H 87.171078 c -0.677168,0 -1.232793,-0.55563 -1.232793,-1.2328 z m 23.457795,1.2328 c -0.0116,0 -0.0232,0 -0.0405,0 1.53955,-1.36013 2.5061,-3.34533 2.5061,-5.55625 0,-0.43988 -0.0405,-0.86817 -0.10997,-1.29068 0.78714,-0.36463 1.66109,-0.56141 2.58134,-0.56141 h 2.47138 c 3.40899,0 6.17554,2.76655 6.17554,6.17554 0,0.68296 -0.55563,1.2328 -1.23279,1.2328 h -12.3453 z m -10.493213,-5.55625 a 5.5562515,5.5562515 0 1 1 11.112503,0 5.5562515,5.5562515 0 1 1 -11.112503,0 z m -5.55625,15.12341 c 0,-4.25979 3.455295,-7.71508 7.715093,-7.71508 h 6.78904 c 4.26558,0 7.72087,3.45529 7.72087,7.71508 0,0.8508 -0.68874,1.54533 -1.54533,1.54533 H 94.886162 c -0.850799,0 -1.54533,-0.68874 -1.54533,-1.54533 z"
       id="path1-09-4"
       style="display:inline;stroke-width:0.0578775" /></g></svg>
